<?xml version="1.0" standalone="no"?>
<!DOCTYPE svg PUBLIC "-//W3C//DTD SVG 20010904//EN"
 "http://www.w3.org/TR/2001/REC-SVG-20010904/DTD/svg10.dtd">
<svg version="1.0" xmlns="http://www.w3.org/2000/svg"
 width="140.000000pt" height="140.000000pt" viewBox="0 0 140.000000 140.000000"
 preserveAspectRatio="xMidYMid meet">
<metadata>
Created by potrace 1.16, written by Peter Selinger 2001-2019
</metadata>
<g transform="translate(0.000000,140.000000) scale(0.100000,-0.100000)"
fill="#000000" stroke="none">
<path d="M400 705 l0 -155 65 0 c36 0 81 6 100 14 59 25 73 84 30 134 -22 26
-23 31 -10 42 9 7 15 29 15 51 0 51 -33 69 -130 69 l-70 0 0 -155z m144 112
c12 -9 17 -23 14 -42 -3 -29 -5 -30 -60 -33 l-58 -3 0 46 0 45 43 0 c24 0 51
-6 61 -13z m23 -143 c15 -24 15 -29 2 -53 -13 -23 -22 -26 -72 -29 l-57 -3 0
56 0 55 55 0 c48 0 57 -3 72 -26z"/>
<path d="M690 705 c0 -146 1 -155 19 -155 17 0 20 9 23 80 2 44 2 114 0 155
-3 66 -6 75 -23 75 -18 0 -19 -9 -19 -155z"/>
<path d="M773 845 c0 -11 13 -15 54 -15 l53 0 0 -140 c0 -133 1 -140 20 -140
19 0 20 7 20 140 l0 140 55 0 c42 0 55 3 55 15 0 13 -21 15 -128 15 -108 0
-129 -2 -129 -15z"/>
<path d="M280 451 c0 -6 4 -13 10 -16 6 -3 7 1 4 9 -7 18 -14 21 -14 7z"/>
<path d="M394 381 c7 -11 46 -35 46 -28 0 3 -12 12 -26 22 -15 9 -23 12 -20 6z"/>
<path d="M460 341 c0 -5 7 -12 16 -15 14 -5 15 -4 4 9 -14 17 -20 19 -20 6z"/>
<path d="M501 317 c2 -2 18 -11 34 -21 l30 -17 -24 20 c-13 12 -28 21 -34 21
-6 0 -8 -1 -6 -3z"/>
<path d="M580 276 c0 -2 8 -10 18 -17 15 -13 16 -12 3 4 -13 16 -21 21 -21 13z"/>
<path d="M636 236 c10 -8 21 -12 24 -10 5 6 -21 24 -34 24 -6 0 -1 -6 10 -14z"/>
</g>
</svg>
